<svg width="100%" height="100%" style="" viewBox="0 0 222 228" fill="currentColor" xmlns="http://www.w3.org/2000/svg"><g clip-path="url(#clip0_5_1226)"><path fill-rule="evenodd" clip-rule="evenodd" d="M73.684 201.995C55.3523 223.898 30.9923 238.67 0 238.67V228.002C28.9587 228.002 51.8923 213.481 69.081 191.63C60.7547 170.871 55.3634 145.443 52.8811 120.243C50.0419 91.4194 50.9542 62.3388 55.9495 40.2406C58.4412 29.218 62.0336 19.5463 66.9751 12.515C71.9931 5.37499 78.6498 0.669922 86.9173 0.669922C95.2031 0.669922 101.803 5.39782 106.586 12.643C111.281 19.7545 114.415 29.5029 116.219 40.5872C119.835 62.8129 118.36 92.0179 111.563 120.999C105.621 146.34 95.399 172.192 80.4742 193.186C80.8048 193.916 81.1394 194.638 81.478 195.351C91.3348 216.111 103.778 228.002 118.132 228.002C133.263 228.002 145.466 219.119 154.858 204.815C154.878 204.785 154.898 204.755 154.917 204.725C143.579 189.694 136.222 171.35 132.301 153.281C127.742 132.28 127.641 111.061 131.457 94.8266C133.363 86.7204 136.325 79.5233 140.487 74.2502C144.727 68.8765 150.311 65.4218 157.026 65.4218C163.761 65.4218 169.279 68.8975 173.446 74.2942C177.519 79.5714 180.393 86.761 182.296 94.8211C186.11 110.97 186.372 132.078 183.197 152.925C180.486 170.731 175.204 188.766 167.138 203.68C180.333 218.329 198.396 228.002 222 228.002V238.67C196.07 238.67 176.214 228.261 161.63 212.712C151.092 228.008 136.623 238.67 118.132 238.67C98.727 238.67 84.0273 223.003 73.684 201.995ZM160.373 195.159C166.792 182.266 171.224 166.815 173.607 151.167C176.621 131.369 176.268 111.831 172.883 97.4967C171.187 90.3149 168.816 84.8029 166.026 81.189C163.328 77.6947 160.364 76.0897 157.026 76.0897C153.668 76.0897 150.613 77.7156 147.838 81.233C144.982 84.851 142.55 90.3555 140.873 97.4912C137.523 111.741 137.496 131.167 141.759 150.81C145.191 166.62 151.283 182.19 160.373 195.159ZM75.9638 182.041C88.1154 163.514 96.7987 141.145 102.147 118.341C108.678 90.4889 109.966 62.861 106.647 42.4619C104.982 32.2338 102.224 24.2219 98.7115 18.9011C95.287 13.7141 91.3628 11.3379 86.9173 11.3379C82.4537 11.3379 78.3947 13.737 74.6754 19.0291C70.8796 24.4301 67.7131 32.5187 65.3871 42.8085C60.7471 63.335 59.7893 91.0874 62.5483 119.097C64.7483 141.431 69.2769 163.575 75.9638 182.041Z" fill="currentColor"></path></g><defs><clipPath id="clip0_5_1226"><rect width="222" height="228" fill="currentColor"></rect></clipPath></defs></svg>