<svg width="83" height="83" fill="none" xmlns="http://www.w3.org/2000/svg"><rect width="83" height="83" rx="24" fill="#F1F6E9"/><path d="M30.844 32.297c0-.802.65-1.453 1.453-1.453h5.812c.802 0 1.453.65 1.453 1.453v5.812c0 .802-.65 1.453-1.453 1.453h-5.812a1.453 1.453 0 0 1-1.453-1.453v-5.812zm0 12.594c0-.802.65-1.453 1.453-1.453h5.812c.802 0 1.453.65 1.453 1.453v5.812c0 .802-.65 1.453-1.453 1.453h-5.812a1.453 1.453 0 0 1-1.453-1.453v-5.812zm12.593-12.594c0-.802.652-1.453 1.454-1.453h5.812c.802 0 1.453.65 1.453 1.453v5.812c0 .802-.65 1.453-1.453 1.453h-5.812a1.453 1.453 0 0 1-1.453-1.453v-5.812z" stroke="#68986B" stroke-width="1.938" stroke-linecap="round" stroke-linejoin="round"/><path d="M34.719 34.719h.968v.968h-.968v-.968zm0 12.593h.968v.97h-.968v-.97zM47.312 34.72h.97v.968h-.97v-.968zm-3.874 8.718h.968v.97h-.968v-.97zm0 7.75h.968v.97h-.968v-.97zm7.75-7.75h.968v.97h-.968v-.97zm0 7.75h.968v.97h-.968v-.97zm-3.876-3.874h.97v.968h-.97v-.968z" stroke="#68986B" stroke-width="1.938" stroke-linecap="round" stroke-linejoin="round"/></svg>