<svg width="83" height="83" fill="none" xmlns="http://www.w3.org/2000/svg"><rect width="83" height="83" rx="24" fill="#F1F6E9"/><path d="M37.688 37.688h7.624M37.688 41.5h7.624m-7.624 3.813H41.5m3.42 6.671H31.968a.953.953 0 0 1-.953-.953V31.97a.953.953 0 0 1 .953-.953H51.03a.953.953 0 0 1 .953.953v12.95a.942.942 0 0 1-.274.668l-6.123 6.123a.942.942 0 0 1-.668.274z" stroke="#68986B" stroke-width="1.906" stroke-linecap="round" stroke-linejoin="round"/><path d="M51.901 45.313h-6.589V51.9" stroke="#68986B" stroke-width="1.906" stroke-linecap="round" stroke-linejoin="round"/></svg>