<svg width="83" height="83" fill="none" xmlns="http://www.w3.org/2000/svg"><rect width="83" height="83" rx="24" fill="#F1F6E9"/><path d="M47.125 34h-11.25v5.625h11.25V34z" stroke="#68986B" stroke-width="1.5" stroke-linecap="round" stroke-linejoin="round"/><path d="M50.875 51.813V31.186a.937.937 0 0 0-.938-.937H33.064a.937.937 0 0 0-.938.938v20.625c0 .517.42.937.938.937h16.874c.518 0 .938-.42.938-.938z" stroke="#68986B" stroke-width="1.5" stroke-linecap="round" stroke-linejoin="round"/><path d="M36.813 45.016a1.172 1.172 0 1 0 0-2.344 1.172 1.172 0 0 0 0 2.344zm4.687 0a1.172 1.172 0 1 0 0-2.344 1.172 1.172 0 0 0 0 2.344zm4.688 0a1.172 1.172 0 1 0 0-2.344 1.172 1.172 0 0 0 0 2.344zm-9.376 4.687a1.172 1.172 0 1 0 0-2.344 1.172 1.172 0 0 0 0 2.344zm4.688 0a1.172 1.172 0 1 0 0-2.344 1.172 1.172 0 0 0 0 2.344zm4.688 0a1.172 1.172 0 1 0 0-2.344 1.172 1.172 0 0 0 0 2.344z" fill="#68986B"/></svg>